# xmcd
#
# Track frame offsets:
#	150
#	18097
#	37442
#	57722
#	76135
#	95795
#	109852
#	137287
#	155307
#	173622
#	192912
#	219705
#	241722
#	258920
#
# Disc length: 3662 seconds
#
# Revision: 2
# Processed by: cddbd v1.5.1PL0 Copyright (c) Steve Scherf et al.
# Submitted via: audiograbber 1.83.01
#
DISCID=b80e4c0e
DTITLE=David Pleasance - Everybody's Girlfriend
DYEAR=1995
DGENRE=Blues
TTITLE0=Living on the Bread Line
TTITLE1=I Don't Want to Lose You
TTITLE2=Crazy Like the Wind
TTITLE3=Fiesta After the Siesta - Instrumental
TTITLE4=Get in Quick
TTITLE5=Everybody's Girlfriend Blues
TTITLE6=Prisoner of Passion
TTITLE7=Lay Down Your Arms
TTITLE8=Don't Let Me Fall
TTITLE9=Roses
TTITLE10=Para Mi Amiga (Homage to Jay Miner) - Instrumental
TTITLE11=Lay You Down
TTITLE12=Feels Like Dreamin'
TTITLE13=Infinity
EXTD=
EXTT0=
EXTT1=
EXTT2=
EXTT3=
EXTT4=
EXTT5=
EXTT6=
EXTT7=
EXTT8=
EXTT9=
EXTT10=
EXTT11=
EXTT12=
EXTT13=
PLAYORDER=
